# xmcd
#
# Track frame offsets:
#	150
#	11804
#	23930
#	36982
#	48355
#	60357
#	71233
#	84060
#	96408
#	109009
#	124498
#	136875
#	148696
#	160548
#	171201
#	193704
#
# Disc length: 2597 seconds
#
# Revision: 1
# Processed by: cddbd v1.5.2PL0 Copyright (c) Steve Scherf et al.
# Submitted via: audiograbber 1.83.01
#
DISCID=dc0a2310
DTITLE=LarryH - Chartbuster CB90220
DYEAR=2004
DGENRE=Karaoke
TTITLE0=Hank Locklin - Please Help Me I'm Falling
TTITLE1=Hank Locklin - Send Me The Pillow You Dream On
TTITLE2=Hank Locklin - Same Sweet Girl, The
TTITLE3=Hank Locklin - Let Me Be The One
TTITLE4=Hank Locklin - Why Baby Why
TTITLE5=Hank Locklin - Geisha Girl
TTITLE6=Hank Locklin - It's A Little More Like Heaven
TTITLE7=Hank Locklin - Happy Birthday To Me
TTITLE8=Hank Locklin - Happy Journey
TTITLE9=Hank Locklin - Country Hall Of Fame, The
TTITLE10=Hank Locklin - One Step Ahead Of My Past
TTITLE11=Hank Locklin - From Here To There To You
TTITLE12=Hank Locklin - You're The Reason
TTITLE13=Hank Locklin - We're Gonna Go Fishin'
TTITLE14=Hank Locklin - Followed Closely By My Teardrops
TTITLE15=Hank Locklin - Chartbuster CB90220
EXTD=
EXTT0=
EXTT1=
EXTT2=
EXTT3=
EXTT4=
EXTT5=
EXTT6=
EXTT7=
EXTT8=
EXTT9=
EXTT10=
EXTT11=
EXTT12=
EXTT13=
EXTT14=
EXTT15=
PLAYORDER=
